{"title":"Baadshah (1999) 2CD XViD 6Channels AC3 E-subs Hindi Movie","uid":8154524,"size":1467180069,"categoryP":"video","categoryS":"movies","magnet":"?xt=urn:btih:f1a21e72cec2bdef40146941d7c07656145ae263&amp;dn=Baadshah+%281999%29+2CD+XViD+6Channels+AC3+E-subs+Hindi+Movie&amp;tr=udp%3A%2F%2Ftracker.openbittorrent.com%3A80&amp;tr=udp%3A%2F%2Fopen.demonii.com%3A1337&amp;tr=udp%3A%2F%2Ftracker.coppersurfer.tk%3A6969&amp;tr=udp%3A%2F%2Fexodus.desync.com%3A6969","seeders":0,"leechers":1,"uploader":"shaan666","files":-1,"time":1361135056,"description":"Baadshah (1999)\n &lt;a href=&quot;\nhttp://www.shotpix.com/images/75111862791013440876.jpg&quot; rel=&quot;nofollow&quot; target=&quot;_NEW&quot;&gt;\nhttp://www.shotpix.com/images/75111862791013440876.jpg&lt;/a&gt;\n\n\n[B]INFO[/B]\n &lt;a href=&quot;\nhttp://www.imdb.com/title/tt0211934/&quot; rel=&quot;nofollow&quot; target=&quot;_NEW&quot;&gt;\nhttp://www.imdb.com/title/tt0211934/&lt;/a&gt;\n\n[CODE]Format : AVI\nFormat/Info : Audio Video Interleave\nFile size : 1.37 GiB\nDuration : 2h 47mn\nOverall bit rate : 1 167 Kbps\nWriting application : VirtualDubMod 1.5.10.2 (build 2542/release)\nWriting library : VirtualDubMod build 2542/release\n\nVideo\nID : 0\nFormat : MPEG-4 Visual\nFormat profile : Advanced Simple@L5\nFormat settings, BVOP : 2\nFormat settings, QPel : No\nFormat settings, GMC : No warppoints\nFormat settings, Matrix : Default (MPEG)\nMuxing mode : Packed bitstream\nCodec ID : XVID\nCodec ID/Hint : XviD\nDuration : 2h 47mn\nBit rate : 966 Kbps\nWidth : 608 pixels\nHeight : 304 pixels\nDisplay aspect ratio : 2.000\nFrame rate : 23.976 fps\nColor space : YUV\nChroma subsampling : 4:2:0\nBit depth : 8 bits\nScan type : Progressive\nCompression mode : Lossy\nBits/(Pixel*Frame) : 0.218\nStream size : 1.13 GiB (83%)\nWriting library : XviD 1.2.1 (UTC 2008-12-04)\n\nAudio\nID : 1\nFormat : AC-3\nFormat/Info : Audio Coding 3\nMode extension : CM (complete main)\nCodec ID : 2000\nDuration : 2h 47mn\nBit rate mode : Constant\nBit rate : 192 Kbps\nChannel(s) : 6 channels\nChannel positions : Front: L C R, Side: L R, LFE\nSampling rate : 48.0 KHz\nBit depth : 16 bits\nCompression mode : Lossy\nStream size : 230 MiB (16%)\nAlignment : Split accross interleaves\nInterleave, duration : 42 ms (1.00 video frame)\nInterleave, preload duration : 500 ms[/CODE]\n\n\n\n\n[B]SCREEN SHOTS[/B]\n &lt;a href=&quot;\nhttp://www.shotpix.com/images/80793122474395260885.png&quot; rel=&quot;nofollow&quot; target=&quot;_NEW&quot;&gt;\nhttp://www.shotpix.com/images/80793122474395260885.png&lt;/a&gt;\n &lt;a href=&quot;\nhttp://www.shotpix.com/images/89874346856430704919.png&quot; rel=&quot;nofollow&quot; target=&quot;_NEW&quot;&gt;\nhttp://www.shotpix.com/images/89874346856430704919.png&lt;/a&gt;\n &lt;a href=&quot;\nhttp://www.shotpix.com/images/21245837755216985108.png&quot; rel=&quot;nofollow&quot; target=&quot;_NEW&quot;&gt;\nhttp://www.shotpix.com/images/21245837755216985108.png&lt;/a&gt;\n &lt;a href=&quot;\nhttp://www.shotpix.com/images/37254375651474534453.png&quot; rel=&quot;nofollow&quot; target=&quot;_NEW&quot;&gt;\nhttp://www.shotpix.com/images/37254375651474534453.png&lt;/a&gt;\n &lt;a href=&quot;\nhttp://www.shotpix.com/images/47548608100241106316.png&quot; rel=&quot;nofollow&quot; target=&quot;_NEW&quot;&gt;\nhttp://www.shotpix.com/images/47548608100241106316.png&lt;/a&gt;\n &lt;a href=&quot;\nhttp://www.shotpix.com/images/56019645205076356204.png&quot; rel=&quot;nofollow&quot; target=&quot;_NEW&quot;&gt;\nhttp://www.shotpix.com/images/56019645205076356204.png&lt;/a&gt;\n &lt;a href=&quot;\nhttp://www.shotpix.com/images/95684103970611703513.png&quot; rel=&quot;nofollow&quot; target=&quot;_NEW&quot;&gt;\nhttp://www.shotpix.com/images/95684103970611703513.png&lt;/a&gt;\n &lt;a href=&quot;\nhttp://www.shotpix.com/images/95861122374803438270.png&quot; rel=&quot;nofollow&quot; target=&quot;_NEW&quot;&gt;\nhttp://www.shotpix.com/images/95861122374803438270.png&lt;/a&gt;\n &lt;a href=&quot;\nhttp://www.shotpix.com/images/78547770465643552538.png&quot; rel=&quot;nofollow&quot; target=&quot;_NEW&quot;&gt;\nhttp://www.shotpix.com/images/78547770465643552538.png&lt;/a&gt;\n &lt;a href=&quot;\nhttp://www.shotpix.com/images/95596545170440800326.png&quot; rel=&quot;nofollow&quot; target=&quot;_NEW&quot;&gt;\nhttp://www.shotpix.com/images/95596545170440800326.png&lt;/a&gt;","torrent":{"xt":"urn:btih:f1a21e72cec2bdef40146941d7c07656145ae263","amp;dn":"Baadshah+%281999%29+2CD+XViD+6Channels+AC3+E-subs+Hindi+Movie","amp;tr":["udp%3A%2F%2Ftracker.openbittorrent.com%3A80","udp%3A%2F%2Fopen.demonii.com%3A1337","udp%3A%2F%2Ftracker.coppersurfer.tk%3A6969","udp%3A%2F%2Fexodus.desync.com%3A6969"],"infoHash":"f1a21e72cec2bdef40146941d7c07656145ae263","infoHashBuffer":{"type":"Buffer","data":[241,162,30,114,206,194,189,239,64,20,105,65,215,192,118,86,20,90,226,99]},"announce":[],"urlList":[]}}